<?xml version="1.0" encoding="UTF-8" standalone="no"?>
<!-- Created with Inkscape (http://www.inkscape.org/) -->

<svg
   width="83.541222"
   height="85.670959"
   id="svg2"
   version="1.1"
   inkscape:version="1.2.1 (9c6d41e410, 2022-07-14)"
   sodipodi:docname="iorcalc.svg"
   xmlns:inkscape="http://www.inkscape.org/namespaces/inkscape"
   xmlns:sodipodi="http://sodipodi.sourceforge.net/DTD/sodipodi-0.dtd"
   xmlns="http://www.w3.org/2000/svg"
   xmlns:svg="http://www.w3.org/2000/svg"
   xmlns:rdf="http://www.w3.org/1999/02/22-rdf-syntax-ns#"
   xmlns:cc="http://creativecommons.org/ns#"
   xmlns:dc="http://purl.org/dc/elements/1.1/">
  <defs
     id="defs4">
    <inkscape:perspective
       sodipodi:type="inkscape:persp3d"
       inkscape:vp_x="0 : 526.18109 : 1"
       inkscape:vp_y="0 : 1000 : 0"
       inkscape:vp_z="744.09448 : 526.18109 : 1"
       inkscape:persp3d-origin="372.04724 : 350.78739 : 1"
       id="perspective10" />
    <inkscape:perspective
       id="perspective2838"
       inkscape:persp3d-origin="0.5 : 0.33333333 : 1"
       inkscape:vp_z="1 : 0.5 : 1"
       inkscape:vp_y="0 : 1000 : 0"
       inkscape:vp_x="0 : 0.5 : 1"
       sodipodi:type="inkscape:persp3d" />
  </defs>
  <sodipodi:namedview
     id="base"
     pagecolor="#ffffff"
     bordercolor="#666666"
     borderopacity="1.0"
     inkscape:pageopacity="0.0"
     inkscape:pageshadow="2"
     inkscape:zoom="7.3186994"
     inkscape:cx="41.879026"
     inkscape:cy="42.903798"
     inkscape:document-units="px"
     inkscape:current-layer="layer1"
     showgrid="false"
     inkscape:snap-global="false"
     inkscape:window-width="1920"
     inkscape:window-height="1004"
     inkscape:window-x="0"
     inkscape:window-y="0"
     inkscape:window-maximized="1"
     inkscape:showpageshadow="2"
     inkscape:pagecheckerboard="0"
     inkscape:deskcolor="#d1d1d1" />
  <metadata
     id="metadata7">
    <rdf:RDF>
      <cc:Work
         rdf:about="">
        <dc:format>image/svg+xml</dc:format>
        <dc:type
           rdf:resource="http://purl.org/dc/dcmitype/StillImage" />
        <dc:title />
      </cc:Work>
    </rdf:RDF>
  </metadata>
  <g
     inkscape:label="Layer 1"
     inkscape:groupmode="layer"
     id="layer1"
     transform="translate(-163.82485,-265.4736)">
    <g
       id="g4154">
      <path
         id="path3620"
         d="m 189.15106,271.00919 c -16.36395,25.82487 -6.13124,67.60133 24.74864,77.07478"
         style="fill:none;stroke:#000080;stroke-width:4;stroke-linecap:butt;stroke-linejoin:miter;stroke-miterlimit:4;stroke-dasharray:none;stroke-opacity:1"
         inkscape:connector-curvature="0" />
      <path
         id="path3935"
         d="m 189.15107,271.50922 c 32.09573,2.85285 48.39693,40.47572 41.01228,68.79643"
         style="fill:none;stroke:#000080;stroke-width:4;stroke-linecap:butt;stroke-linejoin:miter;stroke-miterlimit:4;stroke-dasharray:none;stroke-opacity:1"
         inkscape:connector-curvature="0"
         sodipodi:nodetypes="cc" />
      <path
         id="path4227"
         d="m 188.79751,271.00919 33.94113,74.24621"
         style="fill:none;stroke:#000080;stroke-width:4;stroke-linecap:butt;stroke-linejoin:miter;stroke-miterlimit:4;stroke-dasharray:none;stroke-opacity:1"
         inkscape:connector-curvature="0" />
      <path
         id="path4229"
         d="m 171.11984,287.97975 c 16.74685,8.85302 37.73485,-2.8244 44.54772,-19.09171"
         style="fill:none;stroke:#000080;stroke-width:4;stroke-linecap:butt;stroke-linejoin:miter;stroke-miterlimit:4;stroke-dasharray:none;stroke-opacity:1"
         inkscape:connector-curvature="0" />
      <path
         id="path4231"
         d="m 166.52364,306.01098 c 24.60224,7.89225 54.44926,-4.40807 65.05383,-28.28428"
         style="fill:none;stroke:#000080;stroke-width:4;stroke-linecap:butt;stroke-linejoin:miter;stroke-miterlimit:4;stroke-dasharray:none;stroke-opacity:1"
         inkscape:connector-curvature="0" />
      <path
         id="path4233"
         d="m 169.70563,325.80996 c 27.65718,6.82915 61.50704,-5.53724 72.47844,-33.23398"
         style="fill:none;stroke:#000080;stroke-width:4;stroke-linecap:butt;stroke-linejoin:miter;stroke-miterlimit:4;stroke-dasharray:none;stroke-opacity:1"
         inkscape:connector-curvature="0" />
      <path
         sodipodi:open="true"
         sodipodi:end="6.2718853"
         sodipodi:start="0"
         transform="matrix(0.99992372,-0.01235137,0.01235137,0.99992372,0,0)"
         d="m 241.53378,310.82489 a 39.766212,40.835579 0 0 1 -39.65388,40.83542 39.766212,40.835579 0 0 1 -39.87791,-40.6047 39.766212,40.835579 0 0 1 39.42856,-41.06483 39.766212,40.835579 0 0 1 40.10069,40.37268"
         sodipodi:ry="40.835579"
         sodipodi:rx="39.766212"
         sodipodi:cy="310.82489"
         sodipodi:cx="201.76756"
         id="path4750"
         style="fill:none;stroke:#000080;stroke-width:4;stroke-miterlimit:4;stroke-dasharray:none;stroke-opacity:1"
         sodipodi:type="arc" />
      <path
         id="path4235"
         d="m 180.66579,340.30565 c 24.57844,8.65261 55.43914,-4.1511 64.70028,-28.99143"
         style="fill:none;stroke:#000080;stroke-width:4;stroke-linecap:butt;stroke-linejoin:miter;stroke-miterlimit:4;stroke-dasharray:none;stroke-opacity:1"
         inkscape:connector-curvature="0" />
      <path
         sodipodi:open="true"
         sodipodi:type="arc"
         style="fill:none;stroke:#000080;stroke-width:4;stroke-miterlimit:4;stroke-dasharray:none;stroke-opacity:1"
         id="path4152"
         sodipodi:cx="-209.38359"
         sodipodi:cy="305.74622"
         sodipodi:rx="39.766212"
         sodipodi:ry="40.835579"
         d="m -248.78199,311.28744 a 39.766212,40.835579 0 0 1 -0.31225,-7.69921"
         transform="matrix(-0.99992372,-0.01235137,-0.01235137,0.99992372,0,0)"
         sodipodi:start="3.0054768"
         sodipodi:end="3.194463" />
    </g>
    <path
       style="fill:#ffffff;stroke:none;stroke-width:0.136636"
       d="m 57.582477,22.305876 c -1.939175,-2.586197 -5.771744,-6.603601 -8.004365,-8.390395 l -1.113956,-0.891511 0.479515,-0.602465 c 0.815745,-1.024908 2.713783,-3.956385 3.397976,-5.2480993 0.358247,-0.6763497 0.671068,-1.2547609 0.695157,-1.2853583 0.08155,-0.1035883 2.838041,0.9751561 4.487078,1.7560067 0.901799,0.4270192 2.366568,1.2176938 3.255041,1.7570545 1.743044,1.0581404 4.461592,3.0228774 4.463647,3.2259464 0.0021,0.210495 -1.433748,2.850246 -2.346403,4.313683 -1.271349,2.0386 -4.350088,6.115732 -4.638528,6.142739 -0.04733,0.0044 -0.351156,-0.345489 -0.675162,-0.777601 z"
       id="path944"
       transform="translate(163.82485,265.4736)" />
    <path
       style="fill:#ffffff;stroke:none;stroke-width:0.136636"
       d="M 43.92857,9.9410429 C 41.528854,8.4256257 37.531601,6.6491378 34.381502,5.6980664 33.526887,5.4400428 32.881281,5.1964167 32.946821,5.1566751 33.197548,5.004641 36.01201,4.5012562 37.710781,4.3046098 c 1.974485,-0.2285624 5.659348,-0.2666403 7.460087,-0.077089 1.794213,0.1888637 3.339492,0.4308462 3.539086,0.5542018 0.136277,0.084224 -0.045,0.4858994 -0.749729,1.6612916 -1.122385,1.8719757 -2.736755,4.0815878 -2.972447,4.0684328 -0.09409,-0.0053 -0.570733,-0.261933 -1.059208,-0.5704041 z"
       id="path1015"
       transform="translate(163.82485,265.4736)" />
    <path
       style="fill:#ffffff;stroke:none;stroke-width:0.136636"
       d="m 33.156127,18.419312 c -2.384018,-5.123679 -4.421699,-9.6926209 -4.353281,-9.7610397 0.129204,-0.129204 3.152702,0.6124553 5.082956,1.2468413 2.261689,0.7433134 4.645261,1.7681634 6.558543,2.8199374 0.826649,0.454428 1.554999,0.875842 1.618556,0.936476 0.06356,0.06064 -0.510722,0.654661 -1.276174,1.320059 -1.913989,1.663808 -3.953136,3.105391 -6.32331,4.47029 l -0.652112,0.375528 z"
       id="path1017"
       transform="translate(163.82485,265.4736)" />
    <path
       style="fill:#ffffff;stroke:none;stroke-width:0.136636"
       d="m 20.623551,23.195236 c 0.918897,-4.322945 2.206017,-8.300855 3.742532,-11.566489 0.480996,-1.022284 0.555723,-1.116541 0.688501,-0.868443 0.130005,0.242916 4.724813,10.240873 4.888535,10.637083 0.03616,0.08751 -0.396911,0.302168 -1.035258,0.513144 -2.339352,0.773164 -4.977897,1.315273 -7.356395,1.511426 -0.977862,0.08064 -0.99249,0.07707 -0.927915,-0.226721 z"
       id="path1019"
       transform="translate(163.82485,265.4736)" />
    <path
       style="fill:#ffffff;stroke:none;stroke-width:0.136636"
       d="m 14.217208,22.864386 c -1.575374,-0.362466 -3.711306,-1.07919 -3.840867,-1.288823 -0.200613,-0.324599 2.949125,-4.330456 5.111382,-6.500688 1.457967,-1.463345 4.222476,-3.813354 4.343541,-3.692289 0.0319,0.0319 -0.15456,0.585259 -0.414357,1.229684 -1.026454,2.546117 -2.156208,6.386308 -2.771389,9.420333 -0.285925,1.410161 -0.136695,1.359044 -2.42831,0.831783 z"
       id="path1021"
       transform="translate(163.82485,265.4736)" />
    <path
       style="fill:#ffffff;stroke:none;stroke-width:0.136636"
       d="M 67.114779,40.888412 C 67.082829,40.83205 66.918286,40.355531 66.749126,39.829481 65.701106,36.570373 63.1766,30.975058 61.451467,28.087749 l -0.811014,-1.357373 1.244661,-1.443671 c 2.262082,-2.623766 4.184061,-5.365594 5.763263,-8.221668 0.431891,-0.7811 0.798617,-1.43903 0.814947,-1.462068 0.05499,-0.07757 1.460536,1.469592 2.428717,2.67342 2.115848,2.630824 5.406964,8.256775 5.192911,8.876946 -0.204548,0.592629 -1.881876,4.002429 -2.527816,5.138735 -0.854956,1.503994 -2.317625,3.718932 -3.443541,5.214594 -0.807733,1.07299 -2.813052,3.484226 -2.897677,3.484226 -0.02368,0 -0.06919,-0.04612 -0.101139,-0.102478 z"
       id="path1023"
       transform="translate(163.82485,265.4736)" />
    <path
       style="fill:#ffffff;stroke:none;stroke-width:0.136636"
       d="M 46.114751,46.792788 C 44.348727,42.9217 42.887999,39.70856 42.868689,39.652477 c -0.01931,-0.05608 0.56481,-0.398613 1.298045,-0.761177 4.37436,-2.163002 8.460956,-4.852129 12.034989,-7.919457 0.775812,-0.665822 1.427465,-1.189486 1.448116,-1.163698 0.02065,0.02579 0.394563,0.687905 0.830915,1.471372 1.683926,3.023484 3.255874,6.649981 4.44641,10.257918 1.031266,3.125259 1.091593,2.73412 -0.645262,4.183613 -3.510906,2.930029 -6.507335,4.924658 -10.754704,7.159073 -0.998002,0.52502 -1.901612,0.953777 -2.008022,0.952796 -0.122217,-0.0011 -1.37605,-2.593973 -3.404425,-7.040129 z"
       id="path1025"
       transform="translate(163.82485,265.4736)" />
    <path
       style="fill:#ffffff;stroke:none;stroke-width:0.136636"
       d="m 38.3432,29.779391 c -1.512194,-3.306736 -2.749444,-6.057838 -2.749444,-6.113559 0,-0.05572 0.384289,-0.309235 0.853977,-0.563364 1.306623,-0.706962 4.545711,-2.884184 5.814041,-3.908031 0.623836,-0.503586 1.648878,-1.402751 2.27787,-1.998144 l 1.143622,-1.082534 1.274674,1.060784 c 2.608223,2.170564 4.923527,4.581257 7.13146,7.425276 l 1.211152,1.560074 -0.851995,0.800816 c -2.871079,2.698615 -7.427367,5.816314 -11.603486,7.939836 l -1.752427,0.891094 z"
       id="path1027"
       transform="translate(163.82485,265.4736)" />
    <path
       style="fill:#ffffff;stroke:none;stroke-width:0.136636"
       d="m 20.098935,40.410557 c -0.375433,-2.474104 -0.518852,-6.341626 -0.353428,-9.530753 0.07991,-1.540575 0.175042,-2.8997 0.211401,-3.020279 0.05341,-0.177122 0.367282,-0.237241 1.633988,-0.312971 2.847964,-0.170267 5.955363,-0.79434 8.829828,-1.773334 l 1.317193,-0.448613 2.713579,5.9352 c 1.492467,3.26436 2.730862,5.980318 2.751987,6.035463 0.05566,0.145281 -3.413765,1.273086 -5.642576,1.834232 -3.31205,0.833872 -6.537403,1.344558 -10.410178,1.648294 l -0.984352,0.0772 z"
       id="path1029"
       transform="translate(163.82485,265.4736)" />
    <path
       style="fill:#ffffff;stroke:none;stroke-width:0.136636"
       d="M 15.166629,40.764196 C 11.612174,40.477267 9.2872608,40.117403 6.3194288,39.394773 3.9642341,38.821313 4.1503725,39.133445 4.582345,36.481892 4.9380487,34.298496 5.4213988,32.32074 6.0912597,30.307764 c 0.5199818,-1.562579 1.8151107,-4.723682 2.0191846,-4.928351 0.056626,-0.05679 0.7561095,0.142874 1.5544074,0.4437 1.4921163,0.562282 4.1153663,1.256817 5.4183613,1.434573 l 0.736401,0.10046 -0.08922,1.111806 c -0.291854,3.637043 -0.238724,7.931743 0.143345,11.587186 0.04635,0.443484 0.02922,0.786925 -0.03863,0.774147 -0.06707,-0.01263 -0.367887,-0.04282 -0.668487,-0.06709 z"
       id="path1031"
       transform="translate(163.82485,265.4736)" />
    <path
       style="fill:#ffffff;stroke:none;stroke-width:0.136636"
       d="M 16.942901,59.965284 C 14.633031,59.802121 11.530908,59.392628 9.2559059,58.950568 L 7.3136355,58.573163 6.7753888,57.194545 C 5.2573878,53.306474 4.3963511,49.248536 4.0982511,44.577593 c -0.065417,-1.02503 -0.046757,-1.400522 0.069599,-1.400522 0.087439,0 0.6303725,0.11904 1.2065182,0.264534 2.7634899,0.697864 6.5209047,1.261793 9.6836637,1.453365 l 1.531038,0.09274 0.153323,0.768477 c 0.835492,4.187593 2.877715,10.321224 4.519172,13.572935 l 0.399222,0.790854 -1.539124,-0.01943 c -0.84652,-0.01069 -2.276962,-0.07155 -3.178762,-0.135254 z"
       id="path1033"
       transform="translate(163.82485,265.4736)" />
    <path
       style="fill:#ffffff;stroke:none;stroke-width:0.136636"
       d="m 25.164358,57.813004 c -1.220386,-2.53165 -1.884644,-4.182023 -2.740568,-6.809038 -0.659768,-2.024975 -1.656553,-5.889734 -1.547249,-5.999038 0.03468,-0.03468 0.793187,-0.122254 1.68557,-0.194607 5.129433,-0.415885 10.699583,-1.589939 15.097384,-3.182167 l 1.314237,-0.475821 3.28639,7.195161 c 2.218927,4.858076 3.234437,7.223816 3.126442,7.283378 -0.08797,0.04852 -0.713326,0.284153 -1.389676,0.52363 -5.543181,1.962694 -11.057519,3.161636 -17.168481,3.732816 l -0.63549,0.0594 z"
       id="path1037"
       transform="translate(163.82485,265.4736)" />
    <path
       style="fill:#ffffff;stroke:none;stroke-width:0.136636"
       d="m 70.050557,57.187195 c -0.199469,-3.284459 -0.580801,-6.307651 -1.155342,-9.159536 l -0.440429,-2.186181 1.485898,-1.639635 c 2.899519,-3.199517 5.748906,-7.107534 7.395461,-10.143091 0.37575,-0.692725 0.722625,-1.260971 0.770834,-1.26277 0.110802,-0.0041 0.462117,1.529823 0.801815,3.500991 0.391735,2.273125 0.583863,5.034701 0.516161,7.419132 l -0.06034,2.125373 -0.692867,1.530976 c -1.812963,4.005969 -4.024365,7.453272 -6.960887,10.851164 -0.624856,0.72303 -1.217803,1.382406 -1.31766,1.46528 -0.14908,0.123725 -0.210372,-0.323778 -0.342639,-2.501703 z"
       id="path1039"
       transform="translate(163.82485,265.4736)" />
    <path
       style="fill:#ffffff;stroke:none;stroke-width:0.136636"
       d="m 56.317224,69.112266 c -0.177406,-0.39919 -1.414347,-3.112336 -2.748757,-6.029213 -1.334411,-2.916879 -2.404524,-5.323156 -2.378028,-5.347283 0.0265,-0.02413 0.673366,-0.356391 1.43749,-0.738364 3.508268,-1.753725 7.964543,-4.5663 10.749954,-6.784826 0.814901,-0.649053 1.497058,-1.160237 1.515905,-1.135963 0.05474,0.0705 0.607008,3.626195 0.751885,4.840876 0.250008,2.096121 0.451016,6.546969 0.369591,8.183705 l -0.08157,1.639636 -0.476274,0.419815 c -1.364313,1.202579 -4.994336,3.58798 -7.760725,5.099811 l -1.056914,0.577603 z"
       id="path1041"
       transform="translate(163.82485,265.4736)" />
    <path
       style="fill:#ffffff;stroke:none;stroke-width:0.136636"
       d="m 38.176523,74.147102 c -2.756822,-2.080012 -5.733425,-5.102524 -8.054729,-8.17896 -1.749323,-2.318387 -1.754273,-2.082746 0.04803,-2.286245 4.749872,-0.53631 10.61146,-1.939038 15.338728,-3.670689 l 1.784937,-0.653842 2.684722,5.880914 c 1.476596,3.234502 2.721351,5.980638 2.766121,6.102524 0.06579,0.179121 -0.241032,0.33947 -1.600296,0.836331 -2.029242,0.741761 -3.462471,1.180362 -5.660721,1.732315 -1.649101,0.414067 -5.31641,1.103878 -5.868659,1.103878 -0.159526,0 -0.806686,-0.389801 -1.438134,-0.866226 z"
       id="path1043"
       transform="translate(163.82485,265.4736)" />
    <path
       style="fill:#ffffff;stroke:none;stroke-width:0.136636"
       d="M 28.633614,75.274935 C 25.633101,74.98593 22.64359,74.414753 19.78424,73.584172 18.355123,73.169044 18.191421,73.084568 17.324787,72.315003 16.05683,71.189067 13.833663,68.876335 12.82527,67.634214 11.928853,66.530024 9.7400947,63.383098 9.8158397,63.307353 c 0.025334,-0.02533 0.3633943,0.01412 0.7512453,0.08767 2.149513,0.407647 5.804945,0.7134 9.450133,0.790441 l 3.894134,0.0823 1.158615,1.760265 c 1.687182,2.563309 3.746523,5.087953 6.019684,7.379816 l 1.998938,2.015385 -1.650938,-0.01862 c -0.908016,-0.01024 -2.169833,-0.0686 -2.804037,-0.129684 z"
       id="path1045"
       transform="translate(163.82485,265.4736)" />
    <path
       style="fill:#ffffff;stroke:none;stroke-width:0.136636"
       d="m 38.053209,81.416107 c -2.383798,-0.245176 -5.669336,-0.945438 -7.514996,-1.601708 l -0.7515,-0.267214 3.01045,1.52e-4 c 1.655747,8.4e-5 3.573787,-0.04392 4.26231,-0.09778 l 1.251862,-0.09793 0.92383,0.583452 c 0.508107,0.320899 1.356952,0.819589 1.886323,1.1082 l 0.962492,0.524749 -1.434681,-0.01623 c -0.789075,-0.0089 -1.957315,-0.06999 -2.59609,-0.135686 z"
       id="path1047"
       transform="translate(163.82485,265.4736)" />
    <path
       style="fill:#ffffff;stroke:none;stroke-width:0.136636"
       d="m 49.189068,80.126 c -1.045942,-0.363542 -3.353747,-1.325082 -3.889916,-1.62072 l -0.337371,-0.186024 0.542326,-0.14217 c 0.298279,-0.07819 1.06496,-0.272341 1.703734,-0.431438 1.737938,-0.432861 3.707277,-1.050043 5.465452,-1.712847 0.864225,-0.325799 1.651863,-0.611604 1.750306,-0.635122 0.209559,-0.05006 1.729053,3.165181 1.565507,3.312606 -0.36896,0.332591 -4.87139,1.775775 -5.485603,1.758325 -0.19689,-0.0056 -0.788386,-0.159768 -1.314435,-0.34261 z"
       id="path1049"
       transform="translate(163.82485,265.4736)" />
    <path
       style="fill:#ffffff;stroke:none;stroke-width:0.136636"
       d="m 59.108059,75.20799 c -0.396551,-0.869885 -0.700014,-1.597957 -0.674362,-1.617936 0.02565,-0.01998 0.53853,-0.301995 1.139729,-0.626702 1.619557,-0.874719 3.408968,-1.935654 4.672135,-2.770092 l 1.119591,-0.739594 -0.07768,0.422855 c -0.210593,1.146304 -0.61261,3.071643 -0.730221,3.497172 -0.103273,0.373651 -0.348914,0.632529 -1.123317,1.183853 -1.125938,0.801593 -3.378232,2.232054 -3.514421,2.232054 -0.04975,0 -0.414897,-0.711724 -0.811449,-1.58161 z"
       id="path1051"
       transform="translate(163.82485,265.4736)" />
    <path
       style="fill:#ffffff;stroke:none;stroke-width:0.136636"
       d="m 69.659845,68.475648 c 0.04279,-0.213976 0.120577,-0.861006 0.172849,-1.437844 l 0.09504,-1.048797 2.576957,-2.576956 c 1.417326,-1.417326 2.576956,-2.537617 2.576956,-2.489535 0,0.177365 -1.546131,2.824628 -2.334511,3.997118 -0.830966,1.235823 -2.952552,3.945061 -3.089351,3.945061 -0.04166,0 -0.04073,-0.175071 0.0021,-0.389047 z"
       id="path1053"
       transform="translate(163.82485,265.4736)" />
  </g>
</svg>
